# xmcd
#
# Track frame offsets: 
#        150
#        18930
#        36928
#        52313
#        75003
#        95133
#        106966
#        125528
#        145246
#        161896
#        178971
#        194230
#        216806
#
# Disc length: 3094 seconds
#
# Revision: 0
# Processed by: cddbd v1.5.2PL0 Copyright (c) Steve Scherf et al.
# Submitted via: ExactAudioCopy v0.99pb5
#
DISCID=c10c140d
DTITLE=4th time around - Ladies and Gangsters
DYEAR=2011
DGENRE=Country
TTITLE0=Eric Stroke
TTITLE1=Someone (Should Save This For Another World)
TTITLE2=Chemicals
TTITLE3=The Willows And The Vineyards
TTITLE4=Ashes and Heart
TTITLE5=Valley Of Falls
TTITLE6=Last Exit Golgotha
TTITLE7=Go For The Unknown
TTITLE8=You Know How It Began
TTITLE9=Nuke Me
TTITLE10=Caesarea
TTITLE11=Send Me A Rose
TTITLE12=Lost
EXTD=
EXTT0=
EXTT1=
EXTT2=
EXTT3=
EXTT4=
EXTT5=
EXTT6=
EXTT7=
EXTT8=
EXTT9=
EXTT10=
EXTT11=
EXTT12=
PLAYORDER=
